#!OML:ASF F:\VICON\USERDATA\INSTALL\rory3\rory3.ASF
:FULLY-SPECIFIED
:DEGREES
16
root -10.8455 17.4101 -29.4775 1.48493 -2.80941 -3.01471
lowerback 6.7421 -1.21378 -0.475924
upperback -1.15435 -1.40272 5.48318
thorax -4.84543 -0.603983 6.17264
lowerneck -6.80087 -0.459481 -13.4605
upperneck 17.2728 0.470801 4.07346
head 6.35521 -0.317054 3.56365
rclavicle 5.96354e-015 9.54166e-015
rhumerus -37.609 -1.89389 -78.9629
rradius 29.8769
rwrist 3.74641
rhand -14.9192 8.66471
rfingers 7.12502
rthumb 11.2427 -21.014
lclavicle 5.96354e-015 9.54166e-015
lhumerus -39.4767 17.7872 83.0314
lradius 35.9864
lwrist -3.21083
lhand -13.2267 25.3733
lfingers 7.12502
lthumb 12.8746 54.9562
rfemur -7.4152 8.92803 29.6226
rtibia 28.1289
rfoot -15.4636 -9.99333
rtoes 2.70926
lfemur -30.3778 3.2791 -17.819
ltibia 59.288
lfoot -7.43359 -0.07609
ltoes -4.20247
17
root -10.8376 17.3987 -29.242 1.31534 -2.80729 -3.25355
lowerback 6.95858 -0.833537 0.479062
upperback -0.740753 -0.846048 4.95776
thorax -4.6142 -0.368388 5.00076
lowerneck -8.018 -1.07967 -12.8065
upperneck 17.5055 -0.321855 4.2684
head 6.7075 -0.641032 3.47033
rclavicle -1.14798e-014 3.97569e-014
rhumerus -36.6862 -2.76476 -79.4266
rradius 30.3956
rwrist 4.06352
rhand -14.9158 8.84628
rfingers 7.12502
rthumb 11.2459 -20.8323
lclavicle -1.14798e-014 3.97569e-014
lhumerus -38.756 16.459 83.1072
lradius 35.4041
lwrist -3.07999
lhand -13.3648 25.7099
lfingers 7.12502
lthumb 12.7415 55.3011
rfemur -6.01628 8.52267 30.0275
rtibia 27.5824
rfoot -15.6587 -10.0541
rtoes 2.23694
lfemur -31.0187 3.03646 -17.6243
ltibia 57.446
lfoot -8.92237 0.953229
ltoes -8.74854
18
root -10.837 17.3884 -29.005 1.34002 -3.00394 -3.4344
lowerback 7.10843 -0.538247 1.04231
upperback -0.580986 -0.419355 4.62042
thorax -4.57232 -0.176524 4.27664
lowerneck -8.71551 -1.44019 -12.4369
upperneck 17.7444 -0.801166 4.41755
head 6.94558 -0.836821 3.42463
rclavicle 7.35503e-015 -1.59028e-015
rhumerus -35.993 -2.9197 -79.8526
rradius 30.9727
rwrist 4.30587
rhand -14.9832 9.29732
rfingers 7.12502
rthumb 11.181 -20.3848
lclavicle 7.35503e-015 -1.59028e-015
lhumerus -38.7022 15.6868 83.0219
lradius 34.9574
lwrist -2.66965
lhand -13.8242 25.9178
lfingers 7.12502
lthumb 12.2986 55.5362
rfemur -4.86565 8.4065 30.3531
rtibia 27.1486
rfoot -16.1285 -10.2189
rtoes 1.33943
lfemur -31.7556 2.95846 -17.4572
ltibia 55.4605
lfoot -9.20449 1.97864
ltoes -8.65313
19
root -10.8414 17.3547 -28.7874 1.59476 -3.1253 -3.65019
lowerback 7.24707 -0.424166 1.36199
upperback -0.733155 -0.231575 4.50307
thorax -4.82375 -0.0902476 3.95647
lowerneck -8.68267 -1.40719 -12.2656
upperneck 17.5678 -0.798829 4.48411
head 6.8797 -0.813622 3.41613
rclavicle 8.54774e-015 -3.4191e-014
rhumerus -35.6157 -2.37059 -80.1935
rradius 31.6075
rwrist 4.23404
rhand -14.786 9.4255
rfingers 7.12502
rthumb 11.3711 -20.2462
lclavicle 8.54774e-015 -3.4191e-014
lhumerus -39.3777 15.2835 82.845
lradius 34.7108
lwrist -2.27215
lhand -13.8793 26.5425
lfingers 7.12502
lthumb 12.2455 56.164
rfemur -4.05279 8.41484 30.7084
rtibia 26.7341
rfoot -16.5319 -10.4136
rtoes 1.31098
lfemur -32.6486 2.88658 -17.209
ltibia 53.317
lfoot -9.22293 2.76389
ltoes -6.09852
20
root -10.8486 17.3109 -28.5839 1.90489 -2.91162 -3.96316
lowerback 7.47437 -0.494876 1.61224
upperback -0.960978 -0.280339 4.54512
thorax -5.1898 -0.117396 3.87407
lowerneck -8.53659 -1.26185 -12.3241
upperneck 17.3492 -0.633164 4.61732
head 6.76797 -0.7213 3.48
rclavicle 1.95803e-014 -6.44062e-014
rhumerus -35.28 -1.36078 -80.5462
rradius 32.2848
rwrist 3.77821
rhand -14.8996 9.7329
rfingers 7.12502
rthumb 11.2616 -19.9448
lclavicle 1.95803e-014 -6.44062e-014
lhumerus -40.1391 15.3282 82.6035
lradius 34.5119
lwrist -2.37447
lhand -13.2852 26.8541
lfingers 7.12502
lthumb 12.8183 56.4406
rfemur -3.33766 8.18567 31.1831
rtibia 26.2175
rfoot -16.6675 -10.635
rtoes 1.90018
lfemur -33.634 2.63521 -16.8485
ltibia 51.0189
lfoot -9.37157 3.28303
ltoes -5.24689
21
root -10.8488 17.2927 -28.3636 2.24768 -2.96621 -4.30428
lowerback 7.52899 -0.724721 1.53554
upperback -1.21955 -0.559062 4.9502
thorax -5.47427 -0.24346 4.38812
lowerneck -8.1661 -0.970132 -12.8226
upperneck 17.274 -0.191314 4.5151
head 6.64429 -0.549937 3.56133
rclavicle -8.94531e-016 -7.95139e-015
rhumerus -34.8842 0.710377 -80.7849
rradius 33.0891
rwrist 3.51944
rhand -14.8792 9.58769
rfingers 7.12502
rthumb 11.2813 -20.0889
lclavicle -8.94531e-016 -7.95139e-015
lhumerus -41.2563 16.5757 82.3036
lradius 34.3111
lwrist -2.61143
lhand -13.2974 26.8102
lfingers 7.12502
lthumb 12.8065 56.3974
rfemur -2.56265 8.10986 31.6121
rtibia 25.6356
rfoot -16.832 -10.7748
rtoes 1.86831
lfemur -34.5792 2.30209 -16.421
ltibia 48.487
lfoot -9.02402 3.95868
ltoes -3.81327
22
root -10.8407 17.2881 -28.125 2.46098 -3.39731 -4.64915
lowerback 7.59377 -0.907762 1.5544
upperback -1.43876 -0.767168 5.34924
thorax -5.72582 -0.336929 4.8366
lowerneck -7.74281 -0.627683 -13.2481
upperneck 17.1392 0.323031 4.24904
head 6.48626 -0.349367 3.57864
rclavicle 2.98177e-016 9.54166e-015
rhumerus -34.5185 2.64876 -80.9036
rradius 33.9557
rwrist 4.1231
rhand -14.3074 8.22317
rfingers 7.12502
rthumb 11.8327 -21.4225
lclavicle 2.98177e-016 9.54166e-015
lhumerus -42.5042 17.8826 82.0075
lradius 34.0418
lwrist -2.42776
lhand -14.0701 26.327
lfingers 7.12502
lthumb 12.0615 55.9594
rfemur -1.4554 8.00117 31.9535
rtibia 24.8658
rfoot -17.0934 -10.5293
rtoes 1.95172
lfemur -35.084 1.914 -15.9034
ltibia 45.707
lfoot -8.45299 4.78959
ltoes -3.91057
23
root -10.8351 17.2768 -27.8893 2.66517 -3.88223 -4.9314
lowerback 7.63236 -0.819068 1.85752
upperback -1.47023 -0.613701 5.38414
thorax -5.79534 -0.270036 4.68473
lowerneck -8.03413 -0.5373 -13.1329
upperneck 17.1836 0.49924 4.09576
head 6.53671 -0.268832 3.52528
rclavicle 7.7526e-015 -2.3059e-014
rhumerus -33.9534 3.3977 -81.0651
rradius 34.7134
rwrist 4.49623
rhand -14.0365 7.18119
rfingers 7.12502
rthumb 12.0939 -22.4493
lclavicle 7.7526e-015 -2.3059e-014
lhumerus -43.1182 18.3346 81.6564
lradius 33.418
lwrist -2.95611
lhand -14.6732 25.2377
lfingers 7.12502
lthumb 11.48 54.9033
rfemur -0.25119 7.69418 32.1838
rtibia 23.8872
rfoot -17.1725 -10.1293
rtoes 1.71888
lfemur -35.386 1.39869 -15.3472
ltibia 42.6896
lfoot -7.62123 5.57072
ltoes -5.65274
24
root -10.8352 17.268 -27.6476 2.9007 -4.5396 -4.97736
lowerback 7.45054 -0.649216 1.78146
upperback -1.4217 -0.405184 5.41168
thorax -5.65379 -0.165487 4.72506
lowerneck -8.10219 -0.474666 -13.2341
upperneck 16.8373 0.607849 4.09459
head 6.42816 -0.209737 3.54382
rclavicle -5.76476e-015 -4.85035e-014
rhumerus -33.2916 4.17611 -81.1229
rradius 35.3002
rwrist 4.2982
rhand -14.1775 7.4147
rfingers 7.12502
rthumb 11.958 -22.2238
lclavicle -5.76476e-015 -4.85035e-014
lhumerus -43.6431 18.6926 81.4356
lradius 32.7953
lwrist -4.03356
lhand -15.2133 24.1506
lfingers 7.12502
lthumb 10.959 53.8446
rfemur 0.952825 7.59971 32.1504
rtibia 22.8729
rfoot -17.1483 -9.78287
rtoes 0.86717
lfemur -35.568 0.858683 -14.9133
ltibia 39.4695
lfoot -6.54378 6.41175
ltoes -6.5533
